<svg xmlns="http://www.w3.org/2000/svg" viewBox="0 0 48 48"><defs><style>.cls-6{fill:#9dcc6b}.cls-8{fill:#84b749}</style></defs><g id="hand_recieve_money" data-name="hand recieve money"><path style="fill:#6fabe6" d="M1 24h6v17H1z"/><path d="M7 24c0 15.75-.1 15 0 15a4 4 0 0 1-4-4V24z" style="fill:#82bcf4"/><path d="M47 32a3 3 0 0 1-1.63 2.67C27.74 43.68 28.11 44 24.17 44c-2.86 0-4-.83-12-4.46C10.7 38.86 9.68 39 7 39V26c9.53-1.19 6.49-1.67 21.28 5.28a3 3 0 0 1 .48 5.14l13.87-7.09A3 3 0 0 1 47 32z" style="fill:#f6ccaf"/><path d="M46.82 31c-.53 1.55-.32 1.09-17.55 9.9a10.21 10.21 0 0 1-5.1 1.1c-2.86 0-4-.83-12-4.46A5.82 5.82 0 0 0 10 37a1 1 0 0 1-1-1V25.75c7.17-.89 5.14-1.11 19.28 5.53a3 3 0 0 1 1.17 4.43c-.45.71-1.38 1.07.2.25 13.89-7.09 13-6.67 13.35-6.78A3 3 0 0 1 46.82 31z" style="fill:#ffdec7"/><path d="M25.29 37.61 17.4 33.9a1 1 0 0 1 .86-1.8l7.89 3.71c1.69.79 2.29-1.11 3.3-.1-.45.71-1.38 1.07.2.25.78 1.52-2.39 2.6-4.36 1.65z" style="fill:#edb996"/><path class="cls-6" d="M15 4h30v16H15z"/><path d="M45 4v14H20a3 3 0 0 1-3-2.57V4z" style="fill:#b5e08c"/><path class="cls-8" d="M34 12a4 4 0 1 1-5.64-3.64A4 4 0 0 1 34 12z"/><path class="cls-6" d="M33.64 13.64a4 4 0 0 1-5.28-5.28 4 4 0 0 1 5.28 5.28z"/><path class="cls-8" d="M20 4a5 5 0 0 1-5 5V7a3 3 0 0 0 3-3z"/><path class="cls-6" d="M45 7v2a5 5 0 0 1-5-5h2a3 3 0 0 0 3 3z"/><path class="cls-8" d="M20 20h-2a3 3 0 0 0-3-3v-2a5 5 0 0 1 5 5zM45 15v2a3 3 0 0 0-3 3h-2a5 5 0 0 1 5-5zM21 13a1 1 0 0 1-1-1 1 1 0 1 1 1 1zM39 13a1 1 0 1 1 .71-1.71A1 1 0 0 1 39 13z"/><path class="cls-6" d="M45 15v2a3 3 0 0 0-2.23 1h-2.36A5 5 0 0 1 45 15zM19.57 18A3 3 0 0 1 17 15.43 5.11 5.11 0 0 1 19.57 18zM20 4a5 5 0 0 1-3 4.59V6.23A3 3 0 0 0 18 4z"/></g></svg>